<svg width="408" height="412" xmlns="http://www.w3.org/2000/svg" xmlns:xlink="http://www.w3.org/1999/xlink" xml:space="preserve" overflow="hidden"><defs><clipPath id="clip0"><rect x="436" y="120" width="408" height="412"/></clipPath></defs><g clip-path="url(#clip0)" transform="translate(-436 -120)"><path d="M2174.48 891.057C2231.98 948.565 2231.98 1041.8 2174.48 1099.32 2139.76 1134.02 2105.05 1168.73 2070.34 1203.44 2035.63 1168.73 2000.93 1134.02 1966.22 1099.32 1908.7 1041.8 1908.7 948.565 1966.22 891.057 2023.72 833.549 2116.96 833.549 2174.48 891.057Z" fill="#E8576A" fill-rule="evenodd" fill-opacity="1" transform="matrix(1.00061 0 0 1 -1430.47 -674.614)"/><path d="M1945.79 995.381C1945.79 926.388 2001.49 870.458 2070.21 870.458 2138.93 870.458 2194.63 926.388 2194.63 995.381 2194.63 1064.38 2138.93 1120.3 2070.21 1120.3 2001.49 1120.3 1945.79 1064.38 1945.79 995.381Z" fill="#FFFFFF" fill-rule="evenodd" fill-opacity="1" transform="matrix(1.00061 0 0 1 -1430.47 -674.614)"/><path d="M2017.27 810.519C2017.07 809.928 2017.38 809.286 2017.96 809.083L2022.24 807.612C2022.83 807.409 2023.47 807.723 2023.67 808.312L2026.86 817.556C2027.06 818.146 2026.75 818.789 2026.16 818.993L2021.88 820.463C2021.29 820.667 2020.65 820.353 2020.44 819.762Z" fill="#E8576A" fill-rule="evenodd" fill-opacity="1" transform="matrix(1.00061 0 0 1 -1430.47 -674.614)"/><path d="M2032.29 805.347C2032.09 804.757 2032.4 804.114 2032.99 803.911L2037.26 802.441C2037.85 802.237 2038.49 802.551 2038.7 803.141L2041.88 812.385C2042.08 812.975 2041.77 813.618 2041.18 813.821L2036.9 815.292C2036.31 815.495 2035.67 815.181 2035.47 814.591Z" fill="#E8576A" fill-rule="evenodd" fill-opacity="1" transform="matrix(1.00061 0 0 1 -1430.47 -674.614)"/><path d="M2017.24 832.703C2029.92 838.05 2042.25 836.719 2053.32 826.107" stroke="#E8576A" stroke-width="8.01584" stroke-linecap="butt" stroke-linejoin="miter" stroke-miterlimit="8" stroke-opacity="1" fill="none" fill-rule="evenodd" transform="matrix(1.00061 0 0 1 -1430.47 -674.614)"/><path d="M1889.36 944.727C1888.97 945.862 1888.89 946.835 1889.09 947.648 1889.3 948.461 1889.84 949.157 1890.7 949.735 1891.41 950.227 1892.27 950.692 1893.28 951.128 1894.3 951.565 1895.59 952.056 1897.17 952.598 1898.77 953.152 1900.08 953.566 1901.08 953.84 1902.07 954.113 1903.01 954.276 1903.87 954.327 1904.99 954.433 1905.88 954.232 1906.55 953.723 1907.22 953.213 1907.76 952.377 1908.16 951.211 1908.67 949.731 1908.83 948.613 1908.63 947.857 1908.43 947.103 1907.74 946.397 1906.56 945.743 1905.37 945.088 1903.32 944.256 1900.39 943.245 1897.46 942.235 1895.33 941.623 1893.99 941.409 1892.66 941.195 1891.68 941.324 1891.06 941.798 1890.43 942.271 1889.87 943.247 1889.36 944.727ZM1872.95 948.003 1874.11 944.649 1888.05 949.454 1888.14 949.219C1887.09 948.365 1886.47 947.395 1886.28 946.307 1886.09 945.22 1886.26 943.937 1886.77 942.457 1887.41 940.599 1888.25 939.304 1889.29 938.571 1890.33 937.84 1891.8 937.586 1893.67 937.811 1895.55 938.036 1898.18 938.729 1901.55 939.891 1904.92 941.054 1907.41 942.135 1909.04 943.137 1910.67 944.139 1911.66 945.247 1912.02 946.462 1912.38 947.677 1912.23 949.215 1911.59 951.072 1911.1 952.489 1910.44 953.608 1909.59 954.425 1908.74 955.244 1907.52 955.624 1905.92 955.565L1905.82 955.848 1909.06 957.178 1908.05 960.107Z" fill="#E8576A" fill-rule="evenodd" fill-opacity="1" transform="matrix(1.00061 0 0 1 -1430.47 -674.614)"/><path d="M1898.26 922.552C1897.59 923.964 1897.28 925.072 1897.33 925.875 1897.39 926.679 1897.89 927.427 1898.84 928.119 1899.78 928.81 1901.45 929.733 1903.86 930.884L1908.04 922.142 1907.5 921.883C1905.31 920.832 1903.66 920.186 1902.53 919.944 1901.41 919.702 1900.56 919.783 1899.98 920.188 1899.4 920.592 1898.82 921.38 1898.26 922.552ZM1895.58 921.211C1896.67 918.928 1897.82 917.463 1899.02 916.818 1900.21 916.172 1901.64 916.088 1903.29 916.567 1904.95 917.047 1907.47 918.099 1910.86 919.726L1911.9 920.223 1906.24 932.028C1908.67 933.195 1910.48 933.921 1911.65 934.207 1912.83 934.493 1913.8 934.365 1914.55 933.823 1915.31 933.281 1916.11 932.139 1916.95 930.396 1917.9 928.414 1918.64 926.442 1919.17 924.481L1921.78 925.734C1921.63 926.512 1921.32 927.529 1920.88 928.788 1920.42 930.047 1919.93 931.234 1919.39 932.345 1918.23 934.779 1917.02 936.382 1915.78 937.155 1914.54 937.928 1913.04 938.113 1911.28 937.711 1909.51 937.308 1906.99 936.323 1903.72 934.753 1900.45 933.183 1898.09 931.871 1896.66 930.815 1895.22 929.759 1894.39 928.502 1894.17 927.045 1893.94 925.589 1894.41 923.644 1895.58 921.211Z" fill="#E8576A" fill-rule="evenodd" fill-opacity="1" transform="matrix(1.00061 0 0 1 -1430.47 -674.614)"/><path d="M1906.29 901.626C1906.83 900.747 1907.47 899.845 1908.19 898.923 1908.92 897.999 1909.55 897.293 1910.08 896.802L1912.55 898.322C1912.01 898.887 1911.4 899.613 1910.71 900.503 1910.03 901.392 1909.4 902.291 1908.84 903.198 1908.02 904.531 1907.67 905.645 1907.78 906.537 1907.9 907.43 1908.67 908.313 1910.09 909.185 1911.02 909.762 1911.75 910.129 1912.26 910.287 1912.77 910.444 1913.19 910.441 1913.53 910.276 1913.86 910.111 1914.27 909.743 1914.73 909.171L1917.83 905.385C1918.5 904.546 1919.18 903.975 1919.86 903.668 1920.54 903.362 1921.36 903.334 1922.34 903.586 1923.32 903.837 1924.57 904.434 1926.11 905.378 1928.49 906.845 1929.83 908.373 1930.12 909.962 1930.41 911.551 1929.85 913.494 1928.44 915.791 1927.84 916.756 1927.16 917.761 1926.37 918.805 1925.59 919.851 1924.91 920.684 1924.33 921.306L1921.82 919.76C1923.25 918.137 1924.56 916.361 1925.75 914.432 1926.42 913.354 1926.77 912.458 1926.82 911.745 1926.87 911.031 1926.69 910.432 1926.28 909.948 1925.88 909.463 1925.24 908.95 1924.36 908.408 1923.31 907.762 1922.53 907.361 1922.02 907.203 1921.51 907.046 1921.09 907.054 1920.78 907.227 1920.46 907.401 1920.05 907.787 1919.56 908.387L1916.3 912.248C1915.27 913.488 1914.18 914.091 1913.04 914.058 1911.91 914.024 1910.39 913.423 1908.49 912.253 1906.79 911.204 1905.64 910.127 1905.05 909.021 1904.47 907.914 1904.3 906.781 1904.54 905.621 1904.79 904.461 1905.36 903.129 1906.29 901.626Z" fill="#E8576A" fill-rule="evenodd" fill-opacity="1" transform="matrix(1.00061 0 0 1 -1430.47 -674.614)"/><path d="M1909.13 884.797 1911.24 881.942 1917.19 886.336 1919.81 882.798 1922.25 884.609 1919.65 888.146 1937.69 901.472 1935.59 904.326 1917.54 891 1915.34 893.975 1912.89 892.164 1915.08 889.19Z" fill="#E8576A" fill-rule="evenodd" fill-opacity="1" transform="matrix(1.00061 0 0 1 -1430.47 -674.614)"/><path d="M1937.68 866.752C1936.63 867.819 1936.03 868.742 1935.87 869.52 1935.71 870.298 1936.02 871.232 1936.82 872.322 1937.61 873.413 1939.11 875.047 1941.31 877.223 1943.52 879.4 1945.18 880.873 1946.29 881.644 1947.41 882.413 1948.34 882.72 1949.11 882.562 1949.87 882.403 1950.81 881.767 1951.91 880.653 1952.77 879.776 1953.28 878.925 1953.44 878.1 1953.6 877.274 1953.39 876.392 1952.83 875.453 1952.38 874.679 1951.79 873.887 1951.06 873.08 1950.34 872.271 1949.31 871.212 1947.99 869.902 1945.97 867.912 1944.44 866.615 1943.4 866.008 1942.29 865.286 1941.29 864.992 1940.41 865.127 1939.52 865.262 1938.61 865.803 1937.68 866.752ZM1930.92 853.05 1933.41 850.526 1959.83 876.61 1957.61 878.85 1954.98 876.535 1954.81 876.713C1955.57 878.121 1955.77 879.386 1955.41 880.507 1955.06 881.629 1954.34 882.734 1953.26 883.824 1951.89 885.223 1950.58 886.027 1949.35 886.235 1948.11 886.443 1946.69 886.052 1945.09 885.06 1943.5 884.07 1941.42 882.31 1938.86 879.783 1936.33 877.278 1934.54 875.229 1933.49 873.634 1932.44 872.039 1932.01 870.616 1932.19 869.366 1932.37 868.117 1933.15 866.793 1934.53 865.394 1935.66 864.256 1936.75 863.531 1937.8 863.218 1938.85 862.905 1940 863.027 1941.23 863.585L1941.4 863.407Z" fill="#E8576A" fill-rule="evenodd" fill-opacity="1" transform="matrix(1.00061 0 0 1 -1430.47 -674.614)"/><path d="M1961.16 859.842C1960.33 860.514 1959.79 861.095 1959.52 861.589 1959.26 862.083 1959.25 862.649 1959.49 863.291 1959.73 863.932 1960.28 864.783 1961.14 865.843 1961.96 866.853 1962.65 867.535 1963.22 867.891 1963.79 868.246 1964.38 868.332 1965 868.149 1965.63 867.965 1966.41 867.495 1967.34 866.741 1968.24 866.006 1968.89 865.299 1969.28 864.617 1969.67 863.936 1969.71 863.117 1969.41 862.162 1968.97 860.813 1968.04 859.27 1966.63 857.537L1965.59 856.255ZM1953.12 848.343C1954.94 846.875 1956.47 846 1957.72 845.716 1958.97 845.432 1960.19 845.684 1961.39 846.472 1962.59 847.261 1964.02 848.677 1965.67 850.722L1975.83 863.26 1973.39 865.243 1971.03 862.651 1970.83 862.808C1971.43 864.339 1971.46 865.656 1970.92 866.761 1970.37 867.864 1969.52 868.888 1968.36 869.832 1966.55 871.301 1964.91 871.946 1963.43 871.768 1961.96 871.59 1960.34 870.415 1958.58 868.24 1957.36 866.739 1956.56 865.448 1956.18 864.365 1955.79 863.283 1955.81 862.273 1956.23 861.333 1956.64 860.394 1957.5 859.4 1958.8 858.351 1959.55 857.742 1961.31 856.423 1964.08 854.393L1962.95 852.994C1961.62 851.364 1960.56 850.282 1959.77 849.749 1958.97 849.216 1958.19 849.075 1957.43 849.327 1956.67 849.578 1955.62 850.25 1954.27 851.341 1953.67 851.823 1952.95 852.493 1952.08 853.349 1951.21 854.206 1950.49 854.947 1949.92 855.575L1948.1 853.323C1949.49 851.598 1951.17 849.938 1953.12 848.343Z" fill="#E8576A" fill-rule="evenodd" fill-opacity="1" transform="matrix(1.00061 0 0 1 -1430.47 -674.614)"/><path d="M1966.06 838.869 1969.05 836.948 1977.08 849.427C1978.38 851.443 1979.4 852.834 1980.15 853.6 1980.9 854.365 1981.61 854.729 1982.28 854.694 1982.95 854.658 1983.88 854.263 1985.06 853.505 1986.31 852.694 1987.04 851.797 1987.24 850.816 1987.44 849.835 1987.28 848.77 1986.76 847.621 1986.23 846.47 1985.33 844.901 1984.06 842.913L1976.94 831.864 1979.93 829.943 1991.83 848.429C1993.74 851.398 1995.01 853.777 1995.65 855.566 1996.29 857.355 1996.29 858.966 1995.67 860.397 1995.05 861.829 1993.61 863.266 1991.37 864.708 1989.24 866.078 1987.35 867.176 1985.7 868L1984.14 865.563C1985.7 864.673 1987.37 863.66 1989.13 862.524 1990.76 861.478 1991.79 860.474 1992.24 859.51 1992.69 858.548 1992.7 857.488 1992.25 856.329 1991.8 855.172 1990.88 853.515 1989.49 851.358L1988.95 850.518 1988.74 850.653C1989 851.794 1988.91 852.889 1988.48 853.941 1988.05 854.992 1987.06 856.014 1985.52 857.005 1983.93 858.033 1982.56 858.508 1981.42 858.43 1980.28 858.351 1979.2 857.809 1978.17 856.804 1977.15 855.8 1975.92 854.191 1974.5 851.978Z" fill="#E8576A" fill-rule="evenodd" fill-opacity="1" transform="matrix(1.00061 0 0 1 -1430.47 -674.614)"/></g></svg>