<svg width="554" height="545" xmlns="http://www.w3.org/2000/svg" xmlns:xlink="http://www.w3.org/1999/xlink" xml:space="preserve" overflow="hidden"><defs><clipPath id="clip0"><rect x="1824" y="747" width="554" height="545"/></clipPath></defs><g clip-path="url(#clip0)" transform="translate(-1824 -747)"><path d="M2175.83 891.611C2233.37 949.155 2233.37 1042.45 2175.83 1100 2141.09 1134.73 2106.36 1169.46 2071.63 1204.19 2036.9 1169.46 2002.17 1134.73 1967.44 1100 1909.89 1042.45 1909.89 949.155 1967.44 891.611 2024.98 834.067 2118.28 834.067 2175.83 891.611Z" fill="#E8576A" fill-rule="evenodd" fill-opacity="1"/><path d="M1947 996C1947 926.964 2002.74 871 2071.5 871 2140.26 871 2196 926.964 2196 996 2196 1065.04 2140.26 1121 2071.5 1121 2002.74 1121 1947 1065.04 1947 996Z" fill="#FFFFFF" fill-rule="evenodd" fill-opacity="1"/><path d="M2018.52 811.023C2018.32 810.432 2018.63 809.789 2019.22 809.586L2023.5 808.114C2024.09 807.911 2024.73 808.225 2024.93 808.815L2028.12 818.065C2028.32 818.655 2028.01 819.298 2027.42 819.502L2023.14 820.973C2022.55 821.177 2021.91 820.863 2021.7 820.272Z" fill="#E8576A" fill-rule="evenodd" fill-opacity="1"/><path d="M2033.55 805.848C2033.35 805.258 2033.66 804.614 2034.25 804.411L2038.53 802.94C2039.12 802.736 2039.76 803.05 2039.97 803.641L2043.15 812.89C2043.35 813.481 2043.04 814.124 2042.45 814.327L2038.17 815.799C2037.58 816.002 2036.94 815.688 2036.74 815.098Z" fill="#E8576A" fill-rule="evenodd" fill-opacity="1"/><path d="M2018.49 833.221C2031.18 838.571 2043.52 837.24 2054.6 826.621" stroke="#E8576A" stroke-width="8.02083" stroke-linecap="butt" stroke-linejoin="miter" stroke-miterlimit="8" stroke-opacity="1" fill="none" fill-rule="evenodd"/><path d="M1898.16 929.815C1897.72 930.828 1897.57 931.716 1897.71 932.477 1897.85 933.239 1898.29 933.914 1899.04 934.504 1899.66 935.005 1900.42 935.491 1901.31 935.962 1902.21 936.433 1903.37 936.973 1904.77 937.58 1906.21 938.2 1907.38 938.669 1908.27 938.99 1909.17 939.31 1910.01 939.523 1910.8 939.63 1911.83 939.806 1912.67 939.683 1913.32 939.262 1913.97 938.84 1914.52 938.109 1914.97 937.067 1915.54 935.744 1915.76 934.728 1915.63 934.021 1915.5 933.314 1914.91 932.619 1913.87 931.936 1912.83 931.253 1911 930.347 1908.38 929.217 1905.76 928.087 1903.85 927.378 1902.64 927.089 1901.43 926.8 1900.52 926.852 1899.92 927.243 1899.31 927.634 1898.73 928.491 1898.16 929.815ZM1882.87 931.686 1884.16 928.688 1896.62 934.063 1896.71 933.852C1895.81 932.996 1895.31 932.063 1895.22 931.052 1895.12 930.041 1895.35 928.874 1895.93 927.55 1896.64 925.889 1897.51 924.758 1898.52 924.159 1899.53 923.559 1900.89 923.428 1902.59 923.764 1904.3 924.1 1906.66 924.918 1909.68 926.218 1912.69 927.518 1914.91 928.684 1916.33 929.716 1917.76 930.749 1918.59 931.835 1918.83 932.975 1919.08 934.115 1918.84 935.516 1918.12 937.177 1917.58 938.444 1916.89 939.424 1916.05 940.117 1915.22 940.809 1914.07 941.073 1912.61 940.909L1912.5 941.162 1915.38 942.607 1914.25 945.225Z" fill="#E8576A" fill-rule="evenodd" fill-opacity="1"/><text fill="#000000" fill-opacity="0" font-family="Arial,Arial_MSFontService,sans-serif" font-size="21.6428" direction="ltr" writing-mode="lr-tb" x="1882.87" y="942.52">b</text><path d="M1907.49 910.582C1906.79 911.839 1906.44 912.839 1906.44 913.581 1906.45 914.323 1906.87 915.039 1907.69 915.729 1908.52 916.42 1910 917.365 1912.14 918.563L1916.5 910.776 1916.02 910.506C1914.07 909.413 1912.58 908.722 1911.56 908.434 1910.55 908.147 1909.76 908.172 1909.2 908.51 1908.64 908.847 1908.07 909.538 1907.49 910.582ZM1905.1 909.194C1906.24 907.16 1907.38 905.881 1908.52 905.357 1909.65 904.834 1910.97 904.84 1912.46 905.377 1913.95 905.913 1916.21 907.028 1919.23 908.72L1920.16 909.237 1914.27 919.754C1916.44 920.967 1918.05 921.739 1919.11 922.07 1920.18 922.401 1921.07 922.34 1921.8 921.887 1922.53 921.433 1923.33 920.43 1924.2 918.878 1925.18 917.112 1925.98 915.344 1926.58 913.574L1928.91 914.877C1928.73 915.582 1928.39 916.5 1927.9 917.63 1927.41 918.76 1926.88 919.821 1926.33 920.811 1925.12 922.978 1923.92 924.381 1922.73 925.019 1921.55 925.657 1920.16 925.74 1918.56 925.267 1916.97 924.795 1914.71 923.742 1911.79 922.109 1908.87 920.477 1906.79 919.133 1905.53 918.079 1904.28 917.025 1903.59 915.823 1903.47 914.472 1903.34 913.12 1903.89 911.361 1905.1 909.194Z" fill="#E8576A" fill-rule="evenodd" fill-opacity="1"/><text fill="#000000" fill-opacity="0" font-family="Arial,Arial_MSFontService,sans-serif" font-size="20.5996" direction="ltr" writing-mode="lr-tb" x="1903.45" y="922.994">e</text><path d="M1915.61 892.423C1916.15 891.641 1916.77 890.843 1917.49 890.03 1918.2 889.217 1918.81 888.598 1919.33 888.173L1921.52 889.69C1921 890.183 1920.4 890.822 1919.72 891.606 1919.05 892.39 1918.44 893.185 1917.88 893.992 1917.06 895.178 1916.68 896.184 1916.74 897.01 1916.8 897.836 1917.47 898.685 1918.73 899.557 1919.56 900.133 1920.21 900.505 1920.67 900.675 1921.13 900.844 1921.52 900.861 1921.83 900.726 1922.15 900.591 1922.54 900.272 1923 899.77L1926.03 896.44C1926.69 895.702 1927.34 895.209 1927.97 894.96 1928.61 894.712 1929.37 894.727 1930.26 895.005 1931.15 895.284 1932.28 895.894 1933.64 896.836 1935.76 898.301 1936.91 899.771 1937.11 901.246 1937.3 902.721 1936.69 904.48 1935.27 906.523 1934.68 907.381 1934 908.271 1933.23 909.194 1932.46 910.116 1931.8 910.849 1931.24 911.393L1929 909.849C1930.4 908.427 1931.69 906.858 1932.87 905.143 1933.54 904.184 1933.91 903.378 1933.99 902.724 1934.07 902.071 1933.93 901.511 1933.58 901.046 1933.23 900.581 1932.67 900.078 1931.88 899.537 1930.95 898.892 1930.25 898.484 1929.79 898.315 1929.33 898.146 1928.95 898.133 1928.64 898.277 1928.34 898.42 1927.95 898.756 1927.47 899.284L1924.29 902.675C1923.28 903.764 1922.25 904.266 1921.21 904.18 1920.17 904.094 1918.8 903.467 1917.11 902.299 1915.6 901.253 1914.6 900.206 1914.11 899.16 1913.62 898.114 1913.52 897.064 1913.8 896.01 1914.08 894.955 1914.68 893.76 1915.61 892.423Z" fill="#E8576A" fill-rule="evenodd" fill-opacity="1"/><text fill="#000000" fill-opacity="0" font-family="Arial,Arial_MSFontService,sans-serif" font-size="23.2201" direction="ltr" writing-mode="lr-tb" x="1913.64" y="908.49">s</text><path d="M1918.77 877.373 1920.83 874.837 1926.12 879.127 1928.67 875.983 1930.85 877.752 1928.3 880.895 1944.33 893.909 1942.27 896.445 1926.24 883.431 1924.09 886.074 1921.91 884.306 1924.06 881.663Z" fill="#E8576A" fill-rule="evenodd" fill-opacity="1"/><text fill="#000000" fill-opacity="0" font-family="Arial,Arial_MSFontService,sans-serif" font-size="21.6085" direction="ltr" writing-mode="lr-tb" x="1918.77" y="893.744">t</text><path d="M1945.25 862.312C1944.25 863.263 1943.66 864.094 1943.49 864.806 1943.32 865.517 1943.59 866.386 1944.29 867.413 1944.99 868.439 1946.32 869.986 1948.29 872.053 1950.25 874.12 1951.73 875.524 1952.73 876.266 1953.73 877.007 1954.59 877.316 1955.3 877.193 1956 877.07 1956.88 876.512 1957.93 875.519 1958.75 874.737 1959.25 873.969 1959.42 873.214 1959.59 872.459 1959.42 871.642 1958.93 870.761 1958.53 870.036 1958.01 869.29 1957.37 868.526 1956.73 867.761 1955.82 866.756 1954.63 865.511 1952.84 863.622 1951.47 862.384 1950.53 861.796 1949.53 861.098 1948.62 860.798 1947.8 860.897 1946.99 860.995 1946.14 861.467 1945.25 862.312ZM1939.42 849.507 1941.79 847.257 1965.34 872.03 1963.23 874.027 1960.88 871.82 1960.72 871.978C1961.38 873.296 1961.53 874.466 1961.16 875.487 1960.8 876.508 1960.11 877.505 1959.09 878.477 1957.78 879.723 1956.55 880.424 1955.41 880.58 1954.26 880.735 1952.97 880.333 1951.53 879.375 1950.09 878.417 1948.23 876.737 1945.95 874.336 1943.69 871.958 1942.1 870.02 1941.18 868.521 1940.27 867.023 1939.91 865.702 1940.11 864.557 1940.32 863.413 1941.07 862.217 1942.38 860.971 1943.45 859.957 1944.48 859.321 1945.46 859.064 1946.44 858.807 1947.49 858.953 1948.6 859.502L1948.77 859.343Z" fill="#E8576A" fill-rule="evenodd" fill-opacity="1"/><text fill="#000000" fill-opacity="0" font-family="Arial,Arial_MSFontService,sans-serif" font-size="33.3547" direction="ltr" writing-mode="lr-tb" x="1939.42" y="876.443">d</text><path d="M1966.62 856.92C1965.85 857.52 1965.33 858.045 1965.08 858.493 1964.82 858.942 1964.8 859.464 1965.01 860.059 1965.22 860.654 1965.71 861.448 1966.48 862.443 1967.21 863.388 1967.83 864.031 1968.35 864.369 1968.86 864.708 1969.41 864.8 1969.98 864.644 1970.56 864.488 1971.29 864.072 1972.16 863.396 1973.01 862.739 1973.62 862.101 1973.99 861.482 1974.37 860.863 1974.42 860.111 1974.17 859.225 1973.78 857.974 1972.96 856.535 1971.7 854.91L1970.77 853.71ZM1959.47 846.171C1961.16 844.857 1962.59 844.082 1963.75 843.847 1964.9 843.612 1966.02 843.869 1967.11 844.62 1968.19 845.37 1969.48 846.703 1970.96 848.619L1980.05 860.369 1977.76 862.143 1975.64 859.709 1975.46 859.849C1975.98 861.271 1975.98 862.484 1975.46 863.489 1974.94 864.493 1974.13 865.418 1973.04 866.263 1971.34 867.576 1969.82 868.136 1968.46 867.942 1967.11 867.748 1965.65 866.632 1964.07 864.595 1962.98 863.189 1962.27 861.983 1961.94 860.979 1961.61 859.975 1961.65 859.045 1962.05 858.19 1962.45 857.334 1963.26 856.437 1964.48 855.498 1965.18 854.954 1966.83 853.776 1969.42 851.964L1968.4 850.654C1967.22 849.126 1966.27 848.109 1965.55 847.602 1964.82 847.094 1964.11 846.949 1963.41 847.165 1962.7 847.381 1961.72 847.977 1960.46 848.953 1959.9 849.385 1959.21 849.986 1958.39 850.756 1957.57 851.526 1956.9 852.194 1956.36 852.76L1954.73 850.65C1956.04 849.091 1957.62 847.597 1959.47 846.171Z" fill="#E8576A" fill-rule="evenodd" fill-opacity="1"/><text fill="#000000" fill-opacity="0" font-family="Arial,Arial_MSFontService,sans-serif" font-size="24.2167" direction="ltr" writing-mode="lr-tb" x="1954.73" y="864.953">a</text><path d="M1971.4 837.81 1974.17 836.08 1981.41 847.665C1982.58 849.537 1983.51 850.83 1984.19 851.544 1984.87 852.257 1985.52 852.602 1986.14 852.578 1986.75 852.553 1987.61 852.2 1988.7 851.517 1989.87 850.786 1990.55 849.97 1990.75 849.069 1990.95 848.169 1990.81 847.186 1990.35 846.122 1989.88 845.057 1989.07 843.602 1987.91 841.755L1981.5 831.496 1984.27 829.765 1995 846.929C1996.72 849.685 1997.87 851.891 1998.43 853.546 1998.99 855.2 1998.98 856.682 1998.39 857.992 1997.8 859.302 1996.46 860.608 1994.38 861.908 1992.4 863.143 1990.65 864.13 1989.12 864.867L1987.71 862.605C1989.16 861.805 1990.71 860.894 1992.35 859.87 1993.86 858.927 1994.82 858.015 1995.25 857.134 1995.67 856.253 1995.69 855.277 1995.29 854.206 1994.89 853.135 1994.07 851.598 1992.82 849.596L1992.33 848.816 1992.13 848.938C1992.36 849.991 1992.26 850.999 1991.85 851.961 1991.44 852.923 1990.52 853.851 1989.09 854.745 1987.61 855.671 1986.34 856.091 1985.29 856.005 1984.25 855.919 1983.26 855.407 1982.33 854.469 1981.4 853.532 1980.29 852.035 1979.01 849.981Z" fill="#E8576A" fill-rule="evenodd" fill-opacity="1"/><text fill="#000000" fill-opacity="0" font-family="Arial,Arial_MSFontService,sans-serif" font-size="35.1023" direction="ltr" writing-mode="lr-tb" x="1971.4" y="860.48">y</text></g></svg>