<svg width="422" height="413" xmlns="http://www.w3.org/2000/svg" xmlns:xlink="http://www.w3.org/1999/xlink" xml:space="preserve" overflow="hidden"><defs><clipPath id="clip0"><rect x="400" y="136" width="422" height="413"/></clipPath><clipPath id="clip1"><rect x="401" y="137" width="421" height="412"/></clipPath><clipPath id="clip2"><rect x="401" y="137" width="421" height="413"/></clipPath></defs><g clip-path="url(#clip0)" transform="translate(-400 -136)"><g clip-path="url(#clip1)"><g clip-path="url(#clip2)"><path d="M2171.22 889.723C2228.64 947.146 2228.64 1040.24 2171.22 1097.67 2136.56 1132.33 2101.9 1166.98 2067.24 1201.64 2032.59 1166.98 1997.93 1132.33 1963.27 1097.67 1905.85 1040.24 1905.85 947.146 1963.27 889.723 2020.69 832.301 2113.8 832.301 2171.22 889.723Z" fill="#E8576A" fill-rule="evenodd" fill-opacity="1" transform="matrix(1 0 0 1.00202 -1456.62 -659.438)"/><path d="M1942.88 993.891C1942.88 925.002 1998.5 869.156 2067.11 869.156 2135.73 869.156 2191.35 925.002 2191.35 993.891 2191.35 1062.79 2135.73 1118.63 2067.11 1118.63 1998.5 1118.63 1942.88 1062.79 1942.88 993.891Z" fill="#FFFFFF" fill-rule="evenodd" fill-opacity="1" transform="matrix(1 0 0 1.00202 -1456.62 -659.438)"/><path d="M2014.25 809.306C2014.05 808.716 2014.36 808.075 2014.95 807.872L2019.22 806.403C2019.8 806.201 2020.44 806.514 2020.64 807.103L2023.83 816.333C2024.03 816.922 2023.72 817.563 2023.13 817.767L2018.86 819.235C2018.27 819.439 2017.63 819.125 2017.42 818.535Z" fill="#E8576A" fill-rule="evenodd" fill-opacity="1" transform="matrix(1 0 0 1.00202 -1456.62 -659.438)"/><path d="M2029.24 804.142C2029.05 803.553 2029.35 802.911 2029.94 802.708L2034.21 801.24C2034.8 801.037 2035.44 801.35 2035.65 801.94L2038.82 811.169C2039.02 811.759 2038.71 812.401 2038.13 812.603L2033.86 814.072C2033.27 814.275 2032.63 813.961 2032.43 813.372Z" fill="#E8576A" fill-rule="evenodd" fill-opacity="1" transform="matrix(1 0 0 1.00202 -1456.62 -659.438)"/><path d="M2014.22 831.457C2026.88 836.796 2039.19 835.468 2050.25 824.871" stroke="#E8576A" stroke-width="8.00385" stroke-linecap="butt" stroke-linejoin="miter" stroke-miterlimit="8" stroke-opacity="1" fill="none" fill-rule="evenodd" transform="matrix(1 0 0 1.00202 -1456.62 -659.438)"/><path d="M1894.14 927.847C1893.7 928.857 1893.55 929.744 1893.69 930.503 1893.83 931.263 1894.27 931.937 1895.02 932.526 1895.64 933.026 1896.4 933.511 1897.28 933.981 1898.18 934.451 1899.34 934.989 1900.74 935.595 1902.17 936.214 1903.34 936.682 1904.23 937.002 1905.13 937.321 1905.97 937.534 1906.75 937.641 1907.78 937.816 1908.62 937.694 1909.27 937.274 1909.92 936.852 1910.47 936.123 1910.92 935.083 1911.48 933.763 1911.7 932.749 1911.57 932.044 1911.44 931.338 1910.86 930.645 1909.82 929.963 1908.78 929.281 1906.95 928.377 1904.34 927.25 1901.73 926.122 1899.82 925.415 1898.61 925.126 1897.4 924.838 1896.5 924.89 1895.9 925.28 1895.29 925.67 1894.71 926.525 1894.14 927.847ZM1878.88 929.714 1880.17 926.722 1892.6 932.086 1892.69 931.875C1891.8 931.021 1891.3 930.09 1891.21 929.081 1891.11 928.072 1891.34 926.908 1891.92 925.586 1892.62 923.929 1893.49 922.8 1894.5 922.203 1895.51 921.604 1896.87 921.473 1898.56 921.808 1900.27 922.144 1902.62 922.96 1905.64 924.257 1908.64 925.554 1910.86 926.718 1912.27 927.748 1913.7 928.779 1914.53 929.862 1914.77 931 1915.02 932.137 1914.78 933.535 1914.06 935.193 1913.52 936.457 1912.83 937.435 1911.99 938.127 1911.17 938.817 1910.02 939.081 1908.56 938.917L1908.45 939.169 1911.33 940.611 1910.2 943.224Z" fill="#E8576A" fill-rule="evenodd" fill-opacity="1" transform="matrix(1 0 0 1.00202 -1456.62 -659.438)"/><path d="M1903.45 908.654C1902.75 909.909 1902.4 910.906 1902.4 911.647 1902.41 912.387 1902.83 913.102 1903.65 913.79 1904.48 914.48 1905.96 915.423 1908.09 916.618L1912.44 908.848 1911.96 908.578C1910.02 907.488 1908.53 906.798 1907.51 906.511 1906.51 906.224 1905.72 906.249 1905.16 906.587 1904.6 906.923 1904.03 907.612 1903.45 908.654ZM1901.07 907.269C1902.2 905.24 1903.34 903.963 1904.48 903.44 1905.61 902.918 1906.92 902.924 1908.41 903.46 1909.9 903.995 1912.15 905.108 1915.17 906.796L1916.09 907.312 1910.22 917.807C1912.38 919.017 1913.99 919.788 1915.05 920.118 1916.11 920.448 1917 920.387 1917.73 919.935 1918.46 919.482 1919.26 918.481 1920.13 916.933 1921.1 915.17 1921.9 913.406 1922.5 911.64L1924.83 912.94C1924.65 913.644 1924.31 914.56 1923.82 915.687 1923.33 916.815 1922.8 917.874 1922.25 918.862 1921.04 921.024 1919.85 922.424 1918.66 923.061 1917.48 923.697 1916.09 923.78 1914.5 923.308 1912.91 922.837 1910.66 921.786 1907.74 920.157 1904.83 918.528 1902.75 917.187 1901.5 916.135 1900.25 915.084 1899.56 913.884 1899.44 912.536 1899.31 911.187 1899.86 909.432 1901.07 907.269Z" fill="#E8576A" fill-rule="evenodd" fill-opacity="1" transform="matrix(1 0 0 1.00202 -1456.62 -659.438)"/><path d="M1911.55 890.534C1912.09 889.753 1912.71 888.957 1913.43 888.146 1914.14 887.334 1914.75 886.717 1915.27 886.293L1917.45 887.807C1916.93 888.298 1916.33 888.936 1915.66 889.718 1914.99 890.501 1914.38 891.294 1913.82 892.099 1913 893.283 1912.62 894.287 1912.68 895.111 1912.74 895.935 1913.41 896.782 1914.67 897.653 1915.5 898.227 1916.14 898.599 1916.6 898.768 1917.06 898.937 1917.45 898.954 1917.76 898.819 1918.08 898.684 1918.47 898.366 1918.93 897.865L1921.95 894.542C1922.61 893.806 1923.26 893.314 1923.89 893.065 1924.53 892.818 1925.29 892.833 1926.17 893.11 1927.06 893.389 1928.19 893.997 1929.55 894.937 1931.66 896.399 1932.81 897.866 1933.01 899.338 1933.2 900.81 1932.59 902.565 1931.17 904.604 1930.58 905.46 1929.91 906.348 1929.14 907.269 1928.37 908.189 1927.71 908.921 1927.15 909.464L1924.92 907.923C1926.31 906.504 1927.6 904.938 1928.78 903.227 1929.45 902.27 1929.82 901.466 1929.9 900.813 1929.98 900.161 1929.84 899.602 1929.49 899.138 1929.14 898.674 1928.58 898.172 1927.79 897.633 1926.86 896.989 1926.16 896.582 1925.7 896.413 1925.25 896.245 1924.87 896.232 1924.56 896.375 1924.26 896.518 1923.87 896.853 1923.39 897.38L1920.22 900.764C1919.21 901.851 1918.18 902.352 1917.14 902.266 1916.1 902.18 1914.74 901.554 1913.05 900.389 1911.54 899.345 1910.55 898.3 1910.06 897.256 1909.57 896.213 1909.47 895.165 1909.75 894.113 1910.03 893.06 1910.63 891.868 1911.55 890.534Z" fill="#E8576A" fill-rule="evenodd" fill-opacity="1" transform="matrix(1 0 0 1.00202 -1456.62 -659.438)"/><path d="M1914.71 875.516 1916.76 872.985 1922.04 877.266 1924.59 874.128 1926.76 875.894 1924.22 879.03 1940.21 892.017 1938.16 894.547 1922.16 881.561 1920.02 884.198 1917.84 882.434 1919.99 879.797Z" fill="#E8576A" fill-rule="evenodd" fill-opacity="1" transform="matrix(1 0 0 1.00202 -1456.62 -659.438)"/><path d="M1941.13 860.486C1940.13 861.435 1939.55 862.265 1939.38 862.975 1939.21 863.685 1939.48 864.552 1940.17 865.577 1940.87 866.601 1942.2 868.144 1944.17 870.207 1946.12 872.269 1947.6 873.67 1948.6 874.411 1949.59 875.15 1950.45 875.459 1951.16 875.336 1951.86 875.213 1952.74 874.656 1953.79 873.665 1954.6 872.885 1955.1 872.119 1955.27 871.365 1955.44 870.612 1955.27 869.797 1954.78 868.918 1954.38 868.194 1953.86 867.45 1953.23 866.687 1952.59 865.924 1951.68 864.921 1950.49 863.679 1948.71 861.794 1947.34 860.558 1946.4 859.972 1945.4 859.275 1944.49 858.976 1943.68 859.074 1942.87 859.172 1942.02 859.643 1941.13 860.486ZM1935.31 847.709 1937.68 845.463 1961.18 870.184 1959.07 872.177 1956.73 869.974 1956.57 870.132C1957.23 871.447 1957.38 872.615 1957.01 873.634 1956.65 874.652 1955.96 875.647 1954.94 876.617 1953.64 877.861 1952.41 878.56 1951.27 878.716 1950.12 878.87 1948.84 878.469 1947.4 877.513 1945.96 876.557 1944.11 874.881 1941.83 872.485 1939.58 870.112 1937.99 868.178 1937.07 866.682 1936.16 865.188 1935.8 863.869 1936 862.727 1936.21 861.585 1936.96 860.392 1938.27 859.148 1939.34 858.136 1940.36 857.502 1941.34 857.245 1942.32 856.989 1943.37 857.135 1944.47 857.682L1944.64 857.524Z" fill="#E8576A" fill-rule="evenodd" fill-opacity="1" transform="matrix(1 0 0 1.00202 -1456.62 -659.438)"/><path d="M1962.46 855.106C1961.69 855.705 1961.17 856.228 1960.92 856.676 1960.66 857.124 1960.64 857.644 1960.85 858.238 1961.06 858.832 1961.55 859.624 1962.32 860.617 1963.05 861.56 1963.66 862.202 1964.18 862.539 1964.69 862.877 1965.24 862.969 1965.81 862.813 1966.39 862.658 1967.12 862.243 1967.98 861.568 1968.83 860.913 1969.44 860.276 1969.81 859.658 1970.19 859.04 1970.24 858.29 1969.99 857.406 1969.6 856.158 1968.78 854.722 1967.53 853.1L1966.6 851.903ZM1955.32 844.38C1957.01 843.068 1958.44 842.295 1959.59 842.061 1960.74 841.826 1961.86 842.083 1962.95 842.832 1964.02 843.58 1965.31 844.911 1966.79 846.822L1975.86 858.548 1973.57 860.318 1971.46 857.889 1971.28 858.029C1971.8 859.448 1971.8 860.658 1971.28 861.661 1970.76 862.663 1969.95 863.586 1968.86 864.429 1967.17 865.739 1965.65 866.298 1964.29 866.105 1962.95 865.911 1961.49 864.797 1959.91 862.765 1958.82 861.362 1958.12 860.158 1957.79 859.156 1957.46 858.154 1957.5 857.226 1957.9 856.373 1958.3 855.519 1959.1 854.624 1960.32 853.687 1961.02 853.144 1962.67 851.969 1965.25 850.16L1964.23 848.853C1963.06 847.328 1962.11 846.314 1961.39 845.808 1960.66 845.301 1959.95 845.156 1959.25 845.372 1958.54 845.587 1957.57 846.182 1956.31 847.156 1955.75 847.587 1955.06 848.187 1954.24 848.955 1953.43 849.723 1952.76 850.39 1952.22 850.955L1950.59 848.849C1951.9 847.293 1953.48 845.803 1955.32 844.38Z" fill="#E8576A" fill-rule="evenodd" fill-opacity="1" transform="matrix(1 0 0 1.00202 -1456.62 -659.438)"/><path d="M1967.23 836.036 1969.99 834.31 1977.22 845.87C1978.38 847.738 1979.31 849.029 1979.99 849.741 1980.67 850.453 1981.32 850.797 1981.94 850.773 1982.54 850.748 1983.4 850.396 1984.49 849.714 1985.66 848.985 1986.34 848.171 1986.54 847.271 1986.73 846.373 1986.6 845.392 1986.14 844.331 1985.67 843.268 1984.86 841.816 1983.7 839.973L1977.31 829.736 1980.07 828.008 1990.78 845.136C1992.49 847.886 1993.64 850.088 1994.2 851.739 1994.76 853.39 1994.75 854.868 1994.16 856.176 1993.57 857.483 1992.23 858.786 1990.16 860.083 1988.18 861.316 1986.44 862.301 1984.91 863.036L1983.5 860.779C1984.95 859.981 1986.5 859.071 1988.13 858.05 1989.64 857.109 1990.6 856.199 1991.03 855.319 1991.45 854.44 1991.46 853.466 1991.07 852.398 1990.67 851.329 1989.85 849.795 1988.6 847.797L1988.11 847.019 1987.91 847.141C1988.14 848.192 1988.04 849.197 1987.63 850.157 1987.22 851.117 1986.31 852.043 1984.88 852.935 1983.4 853.86 1982.13 854.279 1981.09 854.193 1980.05 854.107 1979.06 853.596 1978.13 852.66 1977.21 851.725 1976.1 850.231 1974.82 848.182Z" fill="#E8576A" fill-rule="evenodd" fill-opacity="1" transform="matrix(1 0 0 1.00202 -1456.62 -659.438)"/></g></g></g></svg>