<svg width="410" height="413" xmlns="http://www.w3.org/2000/svg" xmlns:xlink="http://www.w3.org/1999/xlink" xml:space="preserve" overflow="hidden"><defs><clipPath id="clip0"><rect x="646" y="116" width="410" height="413"/></clipPath><clipPath id="clip1"><rect x="647" y="117" width="408" height="412"/></clipPath><clipPath id="clip2"><rect x="647" y="117" width="408" height="413"/></clipPath></defs><g clip-path="url(#clip0)" transform="translate(-646 -116)"><g clip-path="url(#clip1)"><g clip-path="url(#clip2)"><path d="M2443.65 967.167 2444.74 963.685 2465.8 965.816 2465.89 965.53 2447.36 955.291 2448.46 951.762 2469.55 953.797 2469.64 953.511 2451.1 943.319 2452.14 939.981 2474.75 953.066 2473.47 957.169 2453.8 955.264 2453.71 955.551 2470.96 965.181 2469.68 969.283Z" fill="#E8576A" fill-rule="evenodd" fill-opacity="1" transform="matrix(1.00061 0 0 1 -1783.46 -681.612)"/><path d="M2460.75 927.752C2460.03 929.29 2459.74 930.459 2459.87 931.261 2460.01 932.062 2460.62 932.819 2461.71 933.53 2462.79 934.242 2464.8 935.285 2467.71 936.66 2470.64 938.036 2472.72 938.914 2473.96 939.294 2475.2 939.673 2476.17 939.661 2476.88 939.258 2477.58 938.853 2478.3 937.882 2479.02 936.345 2479.73 934.837 2480.02 933.675 2479.89 932.859 2479.76 932.042 2479.15 931.29 2478.08 930.6 2477 929.911 2474.99 928.871 2472.03 927.482 2469.08 926.092 2467 925.203 2465.78 924.816 2464.56 924.427 2463.6 924.443 2462.89 924.863 2462.17 925.281 2461.46 926.245 2460.75 927.752ZM2457.99 926.455C2459.14 924.013 2460.28 922.406 2461.42 921.634 2462.56 920.861 2463.98 920.693 2465.69 921.129 2467.4 921.565 2470.01 922.612 2473.54 924.271 2477.07 925.93 2479.55 927.279 2480.98 928.318 2482.4 929.357 2483.18 930.56 2483.31 931.927 2483.44 933.295 2482.93 935.2 2481.78 937.642 2480.63 940.083 2479.49 941.69 2478.35 942.463 2477.21 943.235 2475.79 943.411 2474.07 942.99 2472.35 942.57 2469.73 941.53 2466.21 939.871 2462.68 938.212 2460.21 936.855 2458.79 935.802 2457.37 934.749 2456.59 933.537 2456.46 932.169 2456.33 930.801 2456.84 928.896 2457.99 926.455Z" fill="#E8576A" fill-rule="evenodd" fill-opacity="1" transform="matrix(1.00061 0 0 1 -1783.46 -681.612)"/><path d="M2470.55 903.346 2473.65 905.178C2472.76 906.669 2472.39 908.017 2472.53 909.221 2472.67 910.426 2473.26 911.562 2474.32 912.63 2475.37 913.698 2476.94 914.851 2479.04 916.089L2489.44 922.247 2487.63 925.3 2465.71 912.323 2467.29 909.656 2471.47 911.902 2471.62 911.644C2470.15 910.27 2469.37 908.931 2469.29 907.625 2469.21 906.321 2469.63 904.894 2470.55 903.346Z" fill="#E8576A" fill-rule="evenodd" fill-opacity="1" transform="matrix(1.00061 0 0 1 -1783.46 -681.612)"/><path d="M2477.47 893.237C2478.07 892.397 2478.76 891.54 2479.55 890.669 2480.33 889.797 2481.01 889.135 2481.58 888.682L2483.93 890.365C2483.35 890.893 2482.7 891.576 2481.95 892.417 2481.21 893.257 2480.53 894.112 2479.91 894.979 2479 896.253 2478.57 897.34 2478.63 898.238 2478.68 899.137 2479.39 900.07 2480.74 901.038 2481.64 901.676 2482.33 902.091 2482.83 902.283 2483.33 902.475 2483.74 902.5 2484.09 902.358 2484.44 902.217 2484.86 901.876 2485.37 901.338L2488.72 897.771C2489.45 896.98 2490.16 896.455 2490.86 896.195 2491.55 895.936 2492.38 895.965 2493.34 896.281 2494.3 896.599 2495.52 897.28 2496.98 898.325 2499.26 899.951 2500.48 901.566 2500.67 903.172 2500.85 904.777 2500.16 906.677 2498.6 908.874 2497.94 909.795 2497.19 910.751 2496.34 911.741 2495.49 912.73 2494.75 913.516 2494.13 914.097L2491.73 912.384C2493.27 910.862 2494.7 909.178 2496.01 907.336 2496.75 906.305 2497.17 905.436 2497.26 904.726 2497.36 904.018 2497.22 903.408 2496.85 902.897 2496.48 902.386 2495.87 901.83 2495.03 901.23 2494.03 900.514 2493.28 900.06 2492.78 899.869 2492.28 899.677 2491.86 899.657 2491.53 899.808 2491.2 899.959 2490.77 900.318 2490.24 900.884L2486.73 904.515C2485.61 905.681 2484.48 906.209 2483.35 906.099 2482.23 905.988 2480.76 905.286 2478.94 903.989 2477.31 902.827 2476.24 901.675 2475.73 900.531 2475.21 899.387 2475.12 898.244 2475.44 897.104 2475.77 895.963 2476.44 894.674 2477.47 893.237Z" fill="#E8576A" fill-rule="evenodd" fill-opacity="1" transform="matrix(1.00061 0 0 1 -1783.46 -681.612)"/><path d="M2481.43 876.647 2483.73 873.941 2489.36 878.725 2492.21 875.372 2494.54 877.344 2491.69 880.697 2508.8 895.211 2506.5 897.916 2489.39 883.402 2487 886.223 2484.67 884.251 2487.07 881.431Z" fill="#E8576A" fill-rule="evenodd" fill-opacity="1" transform="matrix(1.00061 0 0 1 -1783.46 -681.612)"/><path d="M2511.11 860.572C2509.99 861.566 2509.32 862.446 2509.11 863.212 2508.9 863.979 2509.15 864.932 2509.88 866.072 2510.6 867.214 2511.99 868.942 2514.05 871.261 2516.09 873.579 2517.65 875.159 2518.71 876.001 2519.77 876.844 2520.68 877.211 2521.46 877.104 2522.23 876.997 2523.21 876.425 2524.38 875.386 2525.3 874.568 2525.87 873.753 2526.08 872.94 2526.3 872.126 2526.15 871.233 2525.64 870.259 2525.24 869.456 2524.71 868.628 2524.04 867.773 2523.37 866.919 2522.42 865.793 2521.18 864.397 2519.3 862.279 2517.86 860.883 2516.86 860.21 2515.81 859.414 2514.83 859.055 2513.94 859.131 2513.05 859.208 2512.11 859.687 2511.11 860.572ZM2505.27 846.451 2507.92 844.097 2532.55 871.878 2530.2 873.965 2527.73 871.481 2527.54 871.647C2528.21 873.103 2528.33 874.378 2527.9 875.473 2527.46 876.569 2526.68 877.624 2525.53 878.64 2524.06 879.945 2522.7 880.659 2521.45 880.785 2520.2 880.911 2518.81 880.426 2517.29 879.332 2515.77 878.237 2513.81 876.344 2511.42 873.652 2509.06 870.984 2507.4 868.821 2506.46 867.16 2505.52 865.499 2505.19 864.051 2505.45 862.815 2505.71 861.581 2506.58 860.311 2508.05 859.008 2509.25 857.946 2510.39 857.295 2511.46 857.053 2512.54 856.811 2513.67 857.009 2514.86 857.646L2515.05 857.481Z" fill="#E8576A" fill-rule="evenodd" fill-opacity="1" transform="matrix(1.00061 0 0 1 -1783.46 -681.612)"/><path d="M2534.99 855.232C2534.11 855.848 2533.53 856.392 2533.23 856.867 2532.94 857.343 2532.89 857.907 2533.09 858.563 2533.28 859.219 2533.78 860.104 2534.57 861.218 2535.32 862.28 2535.97 863.005 2536.51 863.397 2537.05 863.789 2537.64 863.914 2538.27 863.771 2538.91 863.629 2539.71 863.211 2540.69 862.518 2541.65 861.846 2542.34 861.181 2542.78 860.528 2543.21 859.873 2543.31 859.06 2543.07 858.086 2542.71 856.71 2541.88 855.11 2540.59 853.288L2539.64 851.942ZM2527.73 843.232C2529.63 841.885 2531.22 841.112 2532.47 840.91 2533.74 840.709 2534.94 841.041 2536.09 841.905 2537.23 842.771 2538.56 844.277 2540.08 846.425L2549.4 859.602 2546.84 861.42 2544.65 858.68 2544.45 858.825C2544.95 860.391 2544.89 861.708 2544.27 862.773 2543.66 863.84 2542.74 864.805 2541.52 865.672 2539.61 867.018 2537.93 867.554 2536.47 867.281 2535.01 867.007 2533.47 865.727 2531.86 863.443 2530.75 861.865 2530.03 860.524 2529.72 859.418 2529.41 858.314 2529.49 857.306 2529.97 856.396 2530.45 855.487 2531.37 854.55 2532.72 853.589 2533.51 853.031 2535.35 851.829 2538.25 849.984L2537.21 848.515C2536 846.802 2535.01 845.653 2534.25 845.068 2533.49 844.485 2532.72 844.293 2531.96 844.495 2531.18 844.697 2530.09 845.297 2528.67 846.298 2528.05 846.74 2527.27 847.36 2526.34 848.157 2525.42 848.955 2524.65 849.648 2524.05 850.238L2522.38 847.872C2523.87 846.241 2525.66 844.694 2527.73 843.232Z" fill="#E8576A" fill-rule="evenodd" fill-opacity="1" transform="matrix(1.00061 0 0 1 -1783.46 -681.612)"/><path d="M2541.23 834.631 2544.33 832.907 2551.54 845.878C2552.7 847.975 2553.64 849.429 2554.34 850.241 2555.04 851.053 2555.72 851.462 2556.39 851.47 2557.07 851.478 2558.01 851.143 2559.24 850.463 2560.55 849.734 2561.34 848.887 2561.6 847.922 2561.86 846.955 2561.77 845.882 2561.32 844.702 2560.88 843.52 2560.08 841.896 2558.93 839.829L2552.54 828.343 2555.64 826.619 2566.32 845.836C2568.04 848.922 2569.16 851.378 2569.68 853.204 2570.2 855.031 2570.1 856.638 2569.38 858.026 2568.67 859.414 2567.15 860.757 2564.82 862.051 2562.61 863.281 2560.65 864.254 2558.95 864.97L2557.55 862.437C2559.17 861.65 2560.9 860.747 2562.73 859.727 2564.41 858.788 2565.51 857.852 2566.02 856.921 2566.53 855.989 2566.6 854.93 2566.23 853.747 2565.86 852.563 2565.05 850.85 2563.8 848.607L2563.33 847.734 2563.11 847.856C2563.29 849.01 2563.13 850.098 2562.63 851.12 2562.13 852.14 2561.08 853.096 2559.48 853.986 2557.82 854.909 2556.42 855.294 2555.29 855.142 2554.16 854.991 2553.11 854.38 2552.15 853.311 2551.2 852.242 2550.08 850.557 2548.8 848.257Z" fill="#E8576A" fill-rule="evenodd" fill-opacity="1" transform="matrix(1.00061 0 0 1 -1783.46 -681.612)"/><path d="M2737.69 894.62C2795.19 952.128 2795.19 1045.37 2737.69 1102.87 2702.98 1137.58 2668.27 1172.29 2633.56 1207.01 2598.84 1172.29 2564.14 1137.58 2529.43 1102.87 2471.92 1045.37 2471.92 952.128 2529.43 894.62 2586.94 837.11 2680.17 837.11 2737.69 894.62Z" fill="#E8576A" fill-rule="evenodd" fill-opacity="1" transform="matrix(1.00061 0 0 1 -1783.46 -681.612)"/><path d="M2508.44 998.879C2508.44 930.161 2564.36 874.456 2633.36 874.456 2702.36 874.456 2758.28 930.161 2758.28 998.879 2758.28 1067.6 2702.36 1123.3 2633.36 1123.3 2564.36 1123.3 2508.44 1067.6 2508.44 998.879Z" fill="#FFFFFF" fill-rule="evenodd" fill-opacity="1" transform="matrix(1.00061 0 0 1 -1783.46 -681.612)"/><path d="M2598.01 809.341C2597.87 808.696 2598.28 808.058 2598.92 807.915L2603.6 806.886C2604.24 806.744 2604.88 807.152 2605.02 807.797L2607.25 817.902C2607.39 818.547 2606.98 819.185 2606.34 819.327L2601.66 820.358C2601.02 820.5 2600.38 820.092 2600.24 819.447Z" fill="#E8576A" fill-rule="evenodd" fill-opacity="1" transform="matrix(1.00061 0 0 1 -1783.46 -681.612)"/><path d="M2614.43 805.721C2614.29 805.075 2614.7 804.438 2615.35 804.295L2620.02 803.265C2620.67 803.123 2621.3 803.531 2621.45 804.176L2623.68 814.281C2623.82 814.926 2623.41 815.565 2622.76 815.707L2618.09 816.737C2617.44 816.879 2616.81 816.471 2616.66 815.826Z" fill="#E8576A" fill-rule="evenodd" fill-opacity="1" transform="matrix(1.00061 0 0 1 -1783.46 -681.612)"/><path d="M2633.55 835.96C2622.02 829.454 2610.09 829.37 2598.32 838.297" stroke="#E8576A" stroke-width="8.01584" stroke-linecap="butt" stroke-linejoin="miter" stroke-miterlimit="8" stroke-opacity="1" fill="none" fill-rule="evenodd" transform="matrix(1.00061 0 0 1 -1783.46 -681.612)"/></g></g></g></svg>