<svg width="302" height="408" xmlns="http://www.w3.org/2000/svg" xmlns:xlink="http://www.w3.org/1999/xlink" xml:space="preserve" overflow="hidden"><defs><clipPath id="clip0"><rect x="2484" y="802" width="302" height="408"/></clipPath></defs><g clip-path="url(#clip0)" transform="translate(-2484 -802)"><path d="M2739.39 895.176C2796.93 952.72 2796.93 1046.02 2739.39 1103.56 2704.66 1138.29 2669.93 1173.02 2635.2 1207.76 2600.46 1173.02 2565.73 1138.29 2531 1103.56 2473.46 1046.02 2473.46 952.72 2531 895.176 2588.55 837.631 2681.84 837.631 2739.39 895.176Z" fill="#E8576A" fill-rule="evenodd" fill-opacity="1"/><path d="M2510 999.5C2510 930.74 2565.96 875 2635 875 2704.04 875 2760 930.74 2760 999.5 2760 1068.26 2704.04 1124 2635 1124 2565.96 1124 2510 1068.26 2510 999.5Z" fill="#FFFFFF" fill-rule="evenodd" fill-opacity="1"/><path d="M2599.63 809.845C2599.49 809.199 2599.9 808.561 2600.54 808.418L2605.22 807.388C2605.86 807.246 2606.5 807.654 2606.64 808.299L2608.87 818.411C2609.01 819.056 2608.6 819.695 2607.96 819.837L2603.28 820.868C2602.64 821.01 2602 820.602 2601.86 819.957Z" fill="#E8576A" fill-rule="evenodd" fill-opacity="1"/><path d="M2616.06 806.222C2615.92 805.576 2616.33 804.938 2616.98 804.795L2621.65 803.765C2622.3 803.623 2622.93 804.031 2623.08 804.676L2625.31 814.788C2625.45 815.433 2625.04 816.072 2624.39 816.214L2619.72 817.245C2619.07 817.387 2618.44 816.979 2618.29 816.334Z" fill="#E8576A" fill-rule="evenodd" fill-opacity="1"/><path d="M2635.19 836.48C2623.65 829.97 2611.71 829.886 2599.94 838.818" stroke="#E8576A" stroke-width="8.02083" stroke-linecap="butt" stroke-linejoin="miter" stroke-miterlimit="8" stroke-opacity="1" fill="none" fill-rule="evenodd"/></g></svg>